<?xml version="1.0" encoding="UTF-8"?>
<svg width="47px" height="32px" viewBox="0 0 47 32" version="1.1" xmlns="http://www.w3.org/2000/svg" xmlns:xlink="http://www.w3.org/1999/xlink">
    <!-- Generator: Sketch 55.2 (78181) - https://sketchapp.com -->
    <title>Group 7 Copy</title>
    <desc>Created with Sketch.</desc>
    <g id="Page-1" stroke="none" stroke-width="1" fill="none" fill-rule="evenodd">
        <g id="Group-7-Copy" transform="translate(1.000000, 1.000000)" fill="#1E67E5">
            <path d="M46,27.4282607 C46,29.4085864 44.3541071,31 42.34005,31 L2.65995,31 C0.645892904,31 -1,29.4085864 -1,27.4282607 L-1,2.57130428 C-1,0.591319254 0.645987629,-1 2.65995,-1 L42.34005,-1 C44.3540124,-1 46,0.591319254 46,2.57130428 L46,27.4282607 Z M44,27.4282607 L44,2.57130428 C44,1.71128753 43.2642768,1 42.34005,1 L2.65995,1 C1.73572318,1 1,1.71128753 1,2.57130428 L1,27.4282607 C1,28.2886723 1.73567876,29 2.65995,29 L42.34005,29 C43.2643212,29 44,28.2886723 44,27.4282607 Z" id="Fill-1" fill-rule="nonzero"></path>
            <g id="Group-6" transform="translate(4.000000, 8.000000)">
                <path d="M10.4421741,5.48845131 L11.8895047,5.48845131 C12.4627612,5.48845131 12.8609408,5.28455887 12.8609408,4.71173902 C12.8609408,4.09962513 12.4335089,3.89573269 11.8895047,3.89573269 L10.4421741,3.89573269 L10.4421741,5.48845131 Z M10.4421741,2.73044597 L11.8410421,2.73044597 C12.1519016,2.73044597 12.5793335,2.56497438 12.5793335,2.06986942 C12.5793335,1.56472265 12.2195747,1.39968766 11.8410421,1.39968766 L10.4421741,1.39968766 L10.4421741,2.73044597 Z M8.63595782,0.000819667639 L11.8798995,0.000819667639 C13.0744385,-0.0183907542 14.3855498,0.292468799 14.3855498,1.73979944 C14.3855498,2.36108195 14.0166223,2.86622872 13.4726181,3.13823083 C14.2109096,3.35172848 14.6675937,3.99265801 14.6675937,4.7794121 C14.6675937,6.43063518 13.4529711,6.93534535 11.9672196,6.93534535 L8.63595782,6.93534535 L8.63595782,0.000819667639 Z" id="Fill-4"></path>
                <path d="M17.6482216,4.35219851 L19.2217298,4.35219851 L18.4546227,1.92426315 L18.4349757,1.92426315 L17.6482216,4.35219851 Z M17.5316493,0.00103796789 L19.3675544,0.00103796789 L21.9605247,6.93556365 L20.0765936,6.93556365 L19.6491617,5.69256204 L17.2308315,5.69256204 L16.7937944,6.93556365 L14.9386789,6.93556365 L17.5316493,0.00103796789 Z" id="Fill-6"></path>
                <polygon id="Fill-8" points="22.4648856 0.000906987739 24.3200011 0.000906987739 26.7291626 4.27435265 26.7483731 4.27435265 26.7483731 0.000906987739 28.4480588 0.000906987739 28.4480588 6.93543267 26.5925067 6.93543267 24.1842183 2.61352436 24.1650079 2.61352436 24.1650079 6.93543267 22.4648856 6.93543267"></polygon>
                <polygon id="Fill-10" points="29.6807566 0.000906987738 31.4874095 0.000906987738 31.4874095 2.66242361 33.7695203 0.000906987738 36.0132102 0.000906987738 33.4490555 2.73009669 36.333675 6.93543267 34.0904217 6.93543267 32.2257009 4.02199756 31.4874095 4.79914644 31.4874095 6.93586927 29.6807566 6.93586927"></polygon>
                <polygon id="Fill-12" points="4.09312965 9.45156133 2.66850223 9.45156133 2.66850223 13.1569897 1.42462742 13.1569897 1.42462742 9.45156133 1.94066985e-13 9.45156133 1.94066985e-13 8.38145351 4.09312965 8.38145351"></polygon>
                <path d="M5.88602959,10.454782 L6.92906818,10.454782 C7.3036714,10.454782 7.50450763,10.2543823 7.50450763,9.89331371 C7.50450763,9.53879411 7.22333691,9.37812513 6.87580292,9.37812513 L5.88602959,9.37812513 L5.88602959,10.454782 Z M4.64171818,8.38136619 L7.07663914,8.38136619 C7.9188415,8.38136619 8.74838244,8.76295503 8.74838244,9.72565912 C8.74838244,10.2408477 8.50082996,10.7289671 7.99961259,10.9232543 L7.99961259,10.9363523 C8.50781557,11.056854 8.65451334,11.6253079 8.69511718,12.0802456 C8.7082152,12.2806452 8.72873542,12.9831354 8.89595341,13.1569024 L7.66474001,13.1569024 C7.55777289,12.99667 7.53768927,12.5286343 7.52415465,12.394598 C7.49097301,11.9130276 7.41063852,11.4183592 6.82865006,11.4183592 L5.88559299,11.4183592 L5.88559299,13.1569024 L4.64171818,13.1569024 L4.64171818,8.38136619 Z" id="Fill-14"></path>
                <path d="M10.8485182,11.3778864 L11.931724,11.3778864 L11.4034374,9.70570648 L11.3903394,9.70570648 L10.8485182,11.3778864 Z M10.7681837,8.38149717 L12.0321421,8.38149717 L13.8182747,13.1570334 L12.5202615,13.1570334 L12.2259927,12.3008598 L10.5607984,12.3008598 L10.2599807,13.1570334 L8.98248763,13.1570334 L10.7681837,8.38149717 Z" id="Fill-16"></path>
                <polygon id="Fill-18" points="14.1660707 8.38158449 15.4435637 8.38158449 17.102209 11.3242718 17.1157436 11.3242718 17.1157436 8.38158449 18.2862696 8.38158449 18.2862696 13.1571207 17.0087765 13.1571207 15.3496946 10.1808151 15.3365966 10.1808151 15.3365966 13.1571207 14.1660707 13.1571207"></polygon>
                <path d="M20.1053655,11.551828 C20.1324348,12.1137329 20.4795322,12.2940489 21.0082554,12.2940489 C21.3828586,12.2940489 21.7705598,12.1604491 21.7705598,11.8059295 C21.7705598,11.38461 21.0885899,11.3042755 20.3996343,11.1099883 C19.7172277,10.9161377 19.0020761,10.6087709 19.0020761,9.73251375 C19.0020761,8.68903856 20.0521003,8.2808171 20.9484411,8.2808171 C21.8976106,8.2808171 22.8542023,8.74230382 22.8611879,9.81939725 L21.6168765,9.81939725 C21.6369601,9.38454315 21.2287386,9.24395779 20.8475864,9.24395779 C20.5803869,9.24395779 20.2455143,9.3378269 20.2455143,9.65217926 C20.2455143,10.0197969 20.9344699,10.0870334 21.6299745,10.280884 C22.3193667,10.4747346 23.0148712,10.795636 23.0148712,11.6583585 C23.0148712,12.8694883 21.9849307,13.2571896 20.9344699,13.2571896 C19.838166,13.2571896 18.8680397,12.7756192 18.8610541,11.551828 L20.1053655,11.551828 Z" id="Fill-20"></path>
                <polygon id="Fill-22" points="23.5964668 8.38158449 27.1150302 8.38158449 27.1150302 9.37790683 24.8412148 9.37790683 24.8412148 10.3545821 26.8072268 10.3545821 26.8072268 11.3177228 24.8412148 11.3177228 24.8412148 13.1571207 23.5964668 13.1571207"></polygon>
                <polygon id="Fill-24" points="27.683615 8.38158449 31.4894615 8.38158449 31.4894615 9.37790683 28.9274898 9.37790683 28.9274898 10.2139968 31.2685417 10.2139968 31.2685417 11.1771375 28.9274898 11.1771375 28.9274898 12.0870129 31.5562614 12.0870129 31.5562614 13.1571207 27.683615 13.1571207"></polygon>
                <path d="M33.5090881,10.454782 L34.5529999,10.454782 C34.9271665,10.454782 35.1275661,10.2543823 35.1275661,9.89331371 C35.1275661,9.53879411 34.846832,9.37812513 34.499298,9.37812513 L33.5090881,9.37812513 L33.5090881,10.454782 Z M32.2647767,8.38136619 L34.6996976,8.38136619 C35.5423366,8.38136619 36.3718775,8.76295503 36.3718775,9.72565912 C36.3718775,10.2408477 36.1243251,10.7289671 35.6226711,10.9232543 L35.6226711,10.9363523 C36.1308741,11.056854 36.2780084,11.6253079 36.3181757,12.0802456 C36.3317103,12.2806452 36.3517939,12.9831354 36.5190119,13.1569024 L35.2877985,13.1569024 C35.1808314,12.99667 35.1611844,12.5286343 35.1476498,12.394598 C35.1144681,11.9130276 35.0341336,11.4183592 34.4521452,11.4183592 L33.5090881,11.4183592 L33.5090881,13.1569024 L32.2647767,13.1569024 L32.2647767,8.38136619 Z" id="Fill-26"></path>
                <polygon id="Fill-28" points="0.000218300248 1.50787726 7.52983046 1.50787726 7.52983046 0.000295747044 0.000218300248 0.000295747044"></polygon>
                <polygon id="Fill-30" points="0.000218300248 6.93569463 7.52983046 6.93569463 7.52983046 5.42811312 0.000218300248 5.42811312"></polygon>
                <polygon id="Fill-31" points="0.000218300248 4.22134935 7.52983046 4.22134935 7.52983046 2.71376783 0.000218300248 2.71376783"></polygon>
            </g>
        </g>
    </g>
</svg>