<?xml version="1.0" encoding="UTF-8"?>
<svg width="47px" height="29px" viewBox="0 0 47 29" version="1.1" xmlns="http://www.w3.org/2000/svg" xmlns:xlink="http://www.w3.org/1999/xlink">
    <!-- Generator: Sketch 55.2 (78181) - https://sketchapp.com -->
    <title>Group 8 Copy</title>
    <desc>Created with Sketch.</desc>
    <g id="Page-1" stroke="none" stroke-width="1" fill="none" fill-rule="evenodd">
        <g id="Group-8-Copy" transform="translate(1.000000, 1.000000)" fill="#1E67E5" fill-rule="nonzero">
            <path d="M22.8411638,7.80908203 L22.8411638,8.89468123 C23.314112,8.96483935 23.7008817,9.10884596 24.0014844,9.32670539 C24.3020871,9.54456483 24.5886574,9.87873403 24.8612039,10.329223 L23.6888592,10.9329491 C23.336152,10.3421439 22.8752348,10.0467457 22.3060936,10.0467457 C21.9533865,10.0467457 21.6608042,10.1427501 21.4283381,10.3347618 C21.195872,10.5267735 21.0796407,10.7667845 21.0796407,11.0548021 C21.0796407,11.3169719 21.1738282,11.5348281 21.3622059,11.7083771 C21.5465755,11.8782336 21.9193173,12.0794736 22.4804423,12.3121032 C22.9654147,12.5151925 23.3662123,12.7062782 23.6828471,12.885366 C23.999482,13.0644539 24.2379566,13.2370772 24.398278,13.4032411 C24.8511861,13.8537301 25.0776367,14.3983705 25.0776367,15.0371787 C25.0776367,15.6649093 24.8732299,16.2187809 24.4644103,16.6988101 C24.0595986,17.1751468 23.5185219,17.4963924 22.8411638,17.6625564 L22.8411638,18.809082 L21.7890596,18.809082 L21.7890596,17.695789 C21.0034845,17.5776279 20.4042921,17.3283857 19.9914644,16.9480548 C19.5786367,16.567724 19.2740305,15.9806201 19.0776367,15.1867255 L20.400282,14.9319421 C20.5806436,15.493207 20.8010823,15.8938408 21.0616047,16.1338554 C21.3341511,16.3627925 21.6968729,16.4772593 22.149781,16.4772593 C22.590665,16.4772593 22.9593988,16.3461763 23.2559934,16.0840065 C23.5485801,15.8255292 23.6948712,15.49136 23.6948712,15.0814889 C23.6948712,14.7159281 23.5726279,14.4223762 23.3281377,14.2008242 C23.2038886,14.0937408 23.0205237,13.9728121 22.7780375,13.8380347 C22.5355513,13.7032573 22.2259352,13.5564813 21.8491798,13.3977024 C21.0716208,13.076452 20.5606039,12.7810538 20.3161137,12.5114989 C19.9273342,12.1090129 19.7329473,11.6271446 19.7329473,11.0658796 C19.7329473,10.8000173 19.7790391,10.5526213 19.8712239,10.3236842 C19.9634087,10.0947472 20.0966739,9.88704537 20.2710235,9.70057246 C20.4453731,9.51409956 20.6608018,9.35255368 20.9173161,9.21592997 C21.1738304,9.07930626 21.4644086,8.97222441 21.7890596,8.89468123 L21.7890596,7.80908203 L22.8411638,7.80908203 Z" id="$"></path>
            <path d="M0,28 L45,28 C45.5522847,28 46,27.5522847 46,27 L46,0 C46,-0.55228475 45.5522847,-1 45,-1 L0,-1 C-0.55228475,-1 -1,-0.55228475 -1,0 L-1,27 C-1,27.5522847 -0.55228475,28 0,28 Z M1,26 L1,1 L44,1 L44,26 L1,26 Z" id="Stroke-3"></path>
            <path d="M31.1209,13.56 C31.1209,18.2877 27.2879696,22.12 22.5609,22.12 C17.8324804,22.12 14,18.2881499 14,13.56 C14,8.83185011 17.8324804,5 22.5609,5 C27.2879696,5 31.1209,8.83230004 31.1209,13.56 Z M29.1209,13.56 C29.1209,9.93694318 26.1834738,7 22.5609,7 C18.9369762,7 16,9.93649325 16,13.56 C16,17.1835067 18.9369762,20.12 22.5609,20.12 C26.1834738,20.12 29.1209,17.1830568 29.1209,13.56 Z" id="Stroke-5"></path>
            <path d="M8.37741356,20.1959 L4.6,16.4184864 L4.6,11.0774136 L8.37741356,7.3 L15.1327,7.3 C15.6849847,7.3 16.1327,6.85228475 16.1327,6.3 C16.1327,5.74771525 15.6849847,5.3 15.1327,5.3 L7.9632,5.3 C7.69798351,5.3 7.4436296,5.40535684 7.25609322,5.59289322 L2.89289322,9.95609322 C2.70535684,10.1436296 2.6,10.3979835 2.6,10.6632 L2.6,16.8327 C2.6,17.0979165 2.70535684,17.3522704 2.89289322,17.5398068 L7.25609322,21.9030068 C7.4436296,22.0905432 7.69798351,22.1959 7.9632,22.1959 L15.1327,22.1959 C15.6849847,22.1959 16.1327,21.7481847 16.1327,21.1959 C16.1327,20.6436153 15.6849847,20.1959 15.1327,20.1959 L8.37741356,20.1959 Z" id="Stroke-6"></path>
            <path d="M36.3543864,7.3 L40.1318,11.0774136 L40.1318,16.4184864 L36.3543864,20.1959 L29.6,20.1959 C29.0477153,20.1959 28.6,20.6436153 28.6,21.1959 C28.6,21.7481847 29.0477153,22.1959 29.6,22.1959 L36.7686,22.1959 C37.0338165,22.1959 37.2881704,22.0905432 37.4757068,21.9030068 L41.8389068,17.5398068 C42.0264432,17.3522704 42.1318,17.0979165 42.1318,16.8327 L42.1318,10.6632 C42.1318,10.3979835 42.0264432,10.1436296 41.8389068,9.95609322 L37.4757068,5.59289322 C37.2881704,5.40535684 37.0338165,5.3 36.7686,5.3 L29.6,5.3 C29.0477153,5.3 28.6,5.74771525 28.6,6.3 C28.6,6.85228475 29.0477153,7.3 29.6,7.3 L36.3543864,7.3 Z" id="Stroke-7"></path>
        </g>
    </g>
</svg>