<?xml version="1.0" encoding="UTF-8"?>
<svg width="52px" height="39px" viewBox="0 0 52 39" version="1.1" xmlns="http://www.w3.org/2000/svg" xmlns:xlink="http://www.w3.org/1999/xlink">
    <!-- Generator: Sketch 55.2 (78181) - https://sketchapp.com -->
    <title>Group 13 Copy</title>
    <desc>Created with Sketch.</desc>
    <defs>
        <polygon id="path-1" points="0.000631578947 0.301263158 51.8795789 0.301263158 51.8795789 38.9473684 0.000631578947 38.9473684"></polygon>
        <polygon id="path-3" points="0 39.6992632 51.88 39.6992632 51.88 1.05294737 0 1.05294737"></polygon>
    </defs>
    <g id="Page-1" stroke="none" stroke-width="1" fill="none" fill-rule="evenodd">
        <g id="Group-13-Copy" transform="translate(0.000000, -1.000000)">
            <g id="Group-3" transform="translate(0.000000, 0.751895)">
                <mask id="mask-2" fill="white">
                    <use xlink:href="#path-1"></use>
                </mask>
                <g id="Clip-2"></g>
                <path d="M49.2858947,37.2181053 L2.59431579,37.2181053 C2.11642105,37.2181053 1.72905263,36.8307368 1.72905263,36.3538947 L50.1501053,36.3538947 C50.1501053,36.8307368 49.7627368,37.2181053 49.2858947,37.2181053 L49.2858947,37.2181053 Z M2.59431579,13.0075789 L41.128,13.0075789 L41.128,13.8717895 L1.72905263,13.8717895 C1.72905263,13.3949474 2.11642105,13.0075789 2.59431579,13.0075789 L2.59431579,13.0075789 Z M43.7216842,2.02968421 C44.1995789,2.02968421 44.5858947,2.41705263 44.5858947,2.89494737 L44.5858947,22.5191579 L42.8574737,22.5191579 L42.8574737,2.89494737 C42.8574737,2.41705263 43.2448421,2.02968421 43.7216842,2.02968421 L43.7216842,2.02968421 Z M42.9237895,24.2486316 L44.5206316,24.2486316 L43.7216842,26.2433684 L42.9237895,24.2486316 Z M41.1901053,24.5686316 L42.9185263,28.8917895 C43.0953684,29.336 43.5985263,29.5517895 44.0427368,29.3749474 C44.2627368,29.2875789 44.4374737,29.1128421 44.5258947,28.8917895 L46.2543158,24.5686316 C46.2953684,24.4665263 46.3164211,24.3581053 46.3164211,24.2486316 L46.3164211,15.6012632 L50.1501053,15.6012632 L50.1501053,34.6244211 L1.72905263,34.6244211 L1.72905263,15.6012632 L41.128,15.6012632 L41.128,24.2486316 C41.128,24.3581053 41.1490526,24.4665263 41.1901053,24.5686316 L41.1901053,24.5686316 Z M49.2858947,13.0075789 C49.7627368,13.0075789 50.1501053,13.3949474 50.1501053,13.8717895 L46.3164211,13.8717895 L46.3164211,13.0075789 L49.2858947,13.0075789 Z M49.2858947,11.2781053 L46.3164211,11.2781053 L46.3164211,2.89494737 C46.3164211,1.46231579 45.1543158,0.301263158 43.7216842,0.301263158 C42.2901053,0.301263158 41.128,1.46231579 41.128,2.89494737 L41.128,11.2781053 L2.59431579,11.2781053 C1.16063158,11.2781053 0.000631578947,12.4391579 0.000631578947,13.8717895 L0.000631578947,36.3538947 C0.000631578947,37.7865263 1.16063158,38.9475789 2.59431579,38.9475789 L49.2858947,38.9475789 C50.7185263,38.9475789 51.8795789,37.7865263 51.8795789,36.3538947 L51.8795789,13.8717895 C51.8795789,12.4391579 50.7185263,11.2781053 49.2858947,11.2781053 L49.2858947,11.2781053 Z" id="Fill-1" fill="#1E67E5" mask="url(#mask-2)"></path>
            </g>
            <path d="M13.8346316,31.9173684 C10.4914737,31.9173684 7.782,29.2078947 7.782,25.8647368 C7.782,22.5215789 10.4914737,19.8121053 13.8346316,19.8121053 C17.1777895,19.8121053 19.8872632,22.5215789 19.8872632,25.8647368 C19.8830526,29.2057895 17.1756842,31.9131579 13.8346316,31.9173684 M13.8346316,18.0826316 C9.53673684,18.0826316 6.05252632,21.5668421 6.05252632,25.8647368 C6.05252632,30.1626316 9.53673684,33.6468421 13.8346316,33.6468421 C18.1325263,33.6468421 21.6167368,30.1626316 21.6167368,25.8647368 C21.6125263,21.5689474 18.1304211,18.0878947 13.8346316,18.0826316" id="Fill-4" fill="#1E67E5"></path>
            <path d="M13.8346316,23.2707368 C14.3125263,23.2707368 14.6988421,23.6581053 14.6988421,24.1349474 L16.4283158,24.1349474 C16.4241053,23.0402105 15.7325263,22.0654737 14.6988421,21.7002105 L14.6988421,20.6770526 L12.9704211,20.6770526 L12.9704211,21.7002105 C11.6209474,22.1749474 10.9146316,23.6528421 11.3893684,25.0012632 C11.7535789,26.0381053 12.7346316,26.7317895 13.8346316,26.7296842 C14.3125263,26.7296842 14.6988421,27.116 14.6988421,27.5938947 C14.6988421,28.0717895 14.3125263,28.4591579 13.8346316,28.4591579 C13.3567368,28.4591579 12.9704211,28.0717895 12.9704211,27.5938947 L11.2409474,27.5938947 C11.2451579,28.6896842 11.9367368,29.6633684 12.9704211,30.0286316 L12.9704211,31.0528421 L14.6988421,31.0528421 L14.6988421,30.0286316 C16.0483158,29.5538947 16.7546316,28.076 16.2798947,26.7286316 C15.9156842,25.6907368 14.9346316,24.9981053 13.8346316,25.0002105 C13.3567368,25.0002105 12.9704211,24.6128421 12.9704211,24.1349474 C12.9704211,23.6581053 13.3567368,23.2707368 13.8346316,23.2707368" id="Fill-6" fill="#1E67E5"></path>
            <mask id="mask-4" fill="white">
                <use xlink:href="#path-3"></use>
            </mask>
            <g id="Clip-9"></g>
            <polygon id="Fill-8" fill="#1E67E5" mask="url(#mask-4)" points="37.1810526 33.6466316 45.8273684 33.6466316 45.8273684 31.9171579 37.1810526 31.9171579"></polygon>
            <polygon id="Fill-10" fill="#1E67E5" mask="url(#mask-4)" points="25.94 25.8645263 34.5863158 25.8645263 34.5863158 24.1350526 25.94 24.1350526"></polygon>
            <polygon id="Fill-11" fill="#1E67E5" mask="url(#mask-4)" points="36.3157895 25.8645263 38.0452632 25.8645263 38.0452632 24.1350526 36.3157895 24.1350526"></polygon>
            <polygon id="Fill-12" fill="#1E67E5" mask="url(#mask-4)" points="25.94 29.3234737 38.0452632 29.3234737 38.0452632 27.594 25.94 27.594"></polygon>
        </g>
    </g>
</svg>