<?xml version="1.0" encoding="UTF-8"?>
<svg width="77px" height="30px" viewBox="0 0 77 30" version="1.1" xmlns="http://www.w3.org/2000/svg" xmlns:xlink="http://www.w3.org/1999/xlink">
    <!-- Generator: Sketch 55.2 (78181) - https://sketchapp.com -->
    <title>Group 18 Copy</title>
    <desc>Created with Sketch.</desc>
    <g id="Page-1" stroke="none" stroke-width="1" fill="none" fill-rule="evenodd">
        <g id="Group-18-Copy" fill="#1E67E5">
            <path d="M69.2932366,8.36567066 C69.1426611,8.36567066 68.995359,8.40713349 68.866606,8.4846035 L67.5528891,9.27348832 C65.9718461,10.2173132 64.0394602,10.3657064 62.3329376,9.67611418 L61.7688249,9.44697751 L61.7688249,7.03886024 L62.8315826,5.97610254 L63.2625778,6.12013131 C64.4660908,6.51839266 65.764532,6.51839266 66.9669539,6.12013131 L67.8878651,5.81352462 C68.3264981,5.6673136 68.5632727,5.19267336 68.4170617,4.75404031 C68.2708507,4.31540726 67.7973015,4.07754157 67.3586685,4.22375259 L66.4377573,4.5314504 C65.5790404,4.81623455 64.6526735,4.81623455 63.7939566,4.5314504 L62.8730454,4.22375259 C62.5718944,4.12336891 62.2412829,4.20193005 62.0176019,4.42670221 L60.3449042,6.09939989 L58.117914,8.32311671 C57.791667,8.6504548 57.2613793,8.6504548 56.9351323,8.32311671 C56.6088853,7.99686974 56.6088853,7.46767314 56.9351323,7.14033505 L60.1855996,3.8887766 C60.5074821,3.557074 60.497662,3.02678628 60.1648682,2.70599494 C59.8418946,2.3928415 59.3279738,2.3928415 59.002818,2.70599494 L58.3634176,3.34648649 L52.584809,3.34648649 L54.4462716,1.85600702 C54.5946649,1.73707417 54.7790654,1.67269768 54.9700126,1.67269768 L67.2299155,1.67269768 C67.3586685,1.67378881 67.4863303,1.70324924 67.6041721,1.76107897 L70.1334044,3.02678628 L70.1334044,8.3591239 L69.2932366,8.36567066 Z M36.672904,16.7302502 L36.672904,5.01918417 L56.6907199,5.01918417 L55.7523507,5.95755338 C54.7899766,6.95484346 54.8172548,8.54352436 55.8134538,9.50589837 C56.786739,10.4453587 58.3285015,10.4453587 59.3006956,9.50589837 L60.0961272,8.71155792 L60.0961272,16.7302502 L36.672904,16.7302502 Z M71.8082844,10.0383683 L71.8082844,1.67269768 L75.1536797,1.67269768 L75.1536797,10.0383683 L71.8082844,10.0383683 Z M75.989483,-9.9475983e-14 L70.97139,-9.9475983e-14 C70.5087521,-9.9475983e-14 70.1334044,0.374256559 70.1334044,0.836894404 L70.1334044,1.15659461 L68.3505029,0.264052732 C68.0024334,0.0905635405 67.6183567,-9.9475983e-14 67.2299155,-9.9475983e-14 L54.9700126,-9.9475983e-14 C54.3993532,-9.9475983e-14 53.8472429,0.194220605 53.4031542,0.549928005 L49.9060922,3.34648649 L35.8371008,3.34648649 C35.3744629,3.34648649 35.0002064,3.72074305 35.0002064,4.18228977 L35.0002064,17.5671446 C35.0002064,18.0286913 35.3744629,18.404039 35.8371008,18.404039 L60.9330216,18.404039 C61.3934772,18.404039 61.7688249,18.0286913 61.7688249,17.5671446 L61.7688249,11.2495193 C63.9478055,12.1093274 66.4017501,11.9096511 68.4137883,10.7072292 L69.5311023,10.0383683 L70.1334044,10.0383683 L70.1334044,10.8752627 C70.1334044,11.3368095 70.5087521,11.711066 70.97139,11.711066 L75.989483,11.711066 C76.4510297,11.711066 76.8263774,11.3368095 76.8263774,10.8752627 L76.8263774,0.836894404 C76.8263774,0.374256559 76.4510297,-9.9475983e-14 75.989483,-9.9475983e-14 L75.989483,-9.9475983e-14 Z M48.3846247,8.3651251 C48.8461715,8.3651251 49.2215192,8.73938165 49.2215192,9.2020195 L50.8942168,9.2020195 C50.8898523,8.14144406 50.2199003,7.19980147 49.2215192,6.84627632 L49.2215192,5.85553301 L47.5477303,5.85553301 L47.5477303,6.84627632 C46.2438336,7.30564079 45.5586058,8.73501715 46.0179703,10.040005 C46.3714954,11.0427507 47.3196848,11.7137938 48.3846247,11.7116116 C48.8461715,11.7116116 49.2215192,12.0858681 49.2215192,12.5474149 C49.2215192,13.0100527 48.8461715,13.3843093 48.3846247,13.3843093 C47.9219869,13.3843093 47.5477303,13.0100527 47.5477303,12.5474149 L45.8750327,12.5474149 C45.8793972,13.6079903 46.548258,14.5496329 47.5477303,14.903158 L47.5477303,15.8939014 L49.2215192,15.8939014 L49.2215192,14.903158 C50.5254159,14.4437936 51.2106437,13.0144172 50.7501881,11.7105205 C50.397754,10.7066836 49.4484736,10.0367317 48.3846247,10.0389139 C47.9219869,10.0389139 47.5477303,9.66356622 47.5477303,9.2020195 C47.5477303,8.73938165 47.9219869,8.3651251 48.3846247,8.3651251 M43.3647859,10.0385866 L41.6920882,10.0385866 C41.2305415,10.0385866 40.8551938,10.4128431 40.8551938,10.875481 C40.8551938,11.3370277 41.2305415,11.7112842 41.6920882,11.7112842 L43.3647859,11.7112842 C43.8274237,11.7112842 44.2016803,11.3370277 44.2016803,10.875481 C44.2016803,10.4128431 43.8274237,10.0385866 43.3647859,10.0385866 M55.0762884,10.0385866 L53.4035907,10.0385866 C52.942044,10.0385866 52.5666963,10.4128431 52.5666963,10.875481 C52.5666963,11.3370277 52.942044,11.7112842 53.4035907,11.7112842 L55.0762884,11.7112842 C55.5389262,11.7112842 55.9131828,11.3370277 55.9131828,10.875481 C55.9131828,10.4128431 55.5389262,10.0385866 55.0762884,10.0385866" id="Fill-6"></path>
            <path d="M31.1367925,22.1951651 L20.5253538,28.3170696 C20.4087559,28.385171 20.2756486,28.4202535 20.1415094,28.4181899 L8.39401533,28.4181899 C8.23614387,28.4181899 8.08239976,28.3696934 7.95238797,28.2809552 L6.32930425,27.2026828 L6.32930425,22.0888856 C6.48408019,22.0888856 6.63782429,22.0434847 6.76680425,21.9568101 L7.12588443,21.719487 C9.51665684,20.1201356 12.6348762,20.1201356 15.0256486,21.719487 L15.3826651,21.9568101 C15.5126769,22.0434847 15.666421,22.0888856 15.8211969,22.0888856 L22.1505012,22.0888856 C22.5869693,22.0888856 22.9419222,22.4438384 22.9419222,22.8803066 C22.9419222,23.3167748 22.5869693,23.6717276 22.1505012,23.6717276 L17.4030071,23.6717276 C16.9675708,23.6717276 16.6126179,24.0256486 16.6126179,24.4621167 C16.6126179,24.8996167 16.9675708,25.2535377 17.4030071,25.2535377 L22.1505012,25.2535377 C22.7293632,25.2514741 23.2875884,25.0358196 23.7178656,24.6488797 L30.3515625,20.8228184 C30.5300708,20.7186026 30.7426297,20.6907429 30.9428066,20.7443986 C31.1471108,20.7980542 31.3214917,20.9332252 31.4257075,21.1179245 C31.4958726,21.2345224 31.531987,21.3676297 31.5330189,21.5038325 C31.5330189,21.7875884 31.3823703,22.0517394 31.1367925,22.1951651 Z M1.58284198,28.4181899 L1.58284198,20.5070755 L4.74646226,20.5070755 L4.74646226,28.4181899 L1.58284198,28.4181899 Z M32.7959906,20.3275354 C32.1479953,19.1935436 30.7044517,18.7993809 29.5704599,19.4473762 C29.5653007,19.4504717 29.5591097,19.4535672 29.5539505,19.4576946 L24.4690448,22.3839917 C24.2358491,21.2902417 23.2690153,20.5081073 22.1505012,20.5070755 L16.0595519,20.5070755 L15.9006486,20.400796 C13.009434,18.4660967 9.24115566,18.4454599 6.32930425,20.3481722 L6.32930425,19.7156545 C6.32930425,19.2791863 5.97435142,18.9252653 5.53685142,18.9252653 L0.791420991,18.9252653 C0.35495283,18.9252653 -2.91322522e-13,19.2791863 -2.91322522e-13,19.7156545 L-2.91322522e-13,29.208579 C-2.91322522e-13,29.646079 0.35495283,30.0000639 0.791420991,30.0000639 L5.53685142,30.0000639 C5.97435142,30.0000639 6.32930425,29.646079 6.32930425,29.208579 L6.32930425,29.1012677 L7.06810142,29.5913915 C7.45916863,29.8576061 7.92040094,30.0000639 8.39401533,30.0000639 L20.1415094,30.0000639 C20.5573408,30.0030955 20.968013,29.8937205 21.3270932,29.6832252 L31.9282134,23.5685436 C32.6628833,23.141362 33.1137972,22.3561321 33.114829,21.5069281 C33.114829,21.0931604 33.005454,20.6855837 32.7959906,20.3275354 L32.7959906,20.3275354 Z" id="Fill-11"></path>
            <path d="M30.0616156,17.3428361 L11.0757665,17.3428361 L11.0757665,4.68525943 L18.1954599,4.68525943 L18.1954599,8.64030071 C18.1954599,9.07780071 18.5493809,9.4317217 18.9868809,9.4317217 L22.1505012,9.4317217 C22.5869693,9.4317217 22.9419222,9.07780071 22.9419222,8.64030071 L22.9419222,4.68525943 L30.0616156,4.68525943 L30.0616156,17.3428361 Z M19.77727,7.84991156 L21.3590802,7.84991156 L21.3590802,4.68629127 L19.77727,4.68629127 L19.77727,7.84991156 Z M30.8530366,3.10344929 L10.2843455,3.10344929 C9.84684552,3.10344929 9.49292453,3.45737028 9.49292453,3.89487028 L9.49292453,18.1342571 C9.49292453,18.5707252 9.84684552,18.9246462 10.2843455,18.9246462 L30.8530366,18.9246462 C31.2884729,18.9246462 31.6434257,18.5707252 31.6434257,18.1342571 L31.6434257,3.89487028 C31.6434257,3.45737028 31.2884729,3.10344929 30.8530366,3.10344929 L30.8530366,3.10344929 Z M15.8214033,12.5962706 L12.657783,12.5962706 C12.2213149,12.5962706 11.866362,12.9501916 11.866362,13.3876916 C11.866362,13.8241598 12.2213149,14.1780808 12.657783,14.1780808 L15.8214033,14.1780808 C16.2589033,14.1780808 16.6128243,13.8241598 16.6128243,13.3876916 C16.6128243,12.9501916 16.2589033,12.5962706 15.8214033,12.5962706 M18.9864682,12.5962706 L18.1950472,12.5962706 C17.758579,12.5962706 17.4036262,12.9501916 17.4036262,13.3876916 C17.4036262,13.8241598 17.758579,14.1780808 18.1950472,14.1780808 L18.9864682,14.1780808 C19.4229363,14.1780808 19.7778892,13.8241598 19.7778892,13.3876916 C19.7778892,12.9501916 19.4229363,12.5962706 18.9864682,12.5962706 M15.8214033,14.9692954 L12.657783,14.9692954 C12.2213149,14.9692954 11.866362,15.3232164 11.866362,15.7607164 C11.866362,16.1971846 12.2213149,16.5521374 12.657783,16.5521374 L15.8214033,16.5521374 C16.2589033,16.5521374 16.6128243,16.1971846 16.6128243,15.7607164 C16.6128243,15.3232164 16.2589033,14.9692954 15.8214033,14.9692954 M18.9864682,14.9692954 L18.1950472,14.9692954 C17.758579,14.9692954 17.4036262,15.3232164 17.4036262,15.7607164 C17.4036262,16.1971846 17.758579,16.5521374 18.1950472,16.5521374 L18.9864682,16.5521374 C19.4229363,16.5521374 19.7778892,16.1971846 19.7778892,15.7607164 C19.7778892,15.3232164 19.4229363,14.9692954 18.9864682,14.9692954" id="Fill-12"></path>
        </g>
    </g>
</svg>