<?xml version="1.0" encoding="UTF-8"?>
<svg width="46px" height="40px" viewBox="0 0 46 40" version="1.1" xmlns="http://www.w3.org/2000/svg" xmlns:xlink="http://www.w3.org/1999/xlink">
    <!-- Generator: Sketch 55.2 (78181) - https://sketchapp.com -->
    <title>paymenticon copy@1x</title>
    <desc>Created with Sketch.</desc>
    <g id="Page-1" stroke="none" stroke-width="1" fill="none" fill-rule="evenodd">
        <g id="paymenticon" transform="translate(1.000000, 1.000000)">
            <g>
                <path d="M23.003267,26.7826591 L23.003267,28.35275 C23.5478693,28.2922955 23.8453125,28.0150682 23.8453125,27.60225 C23.8453125,27.2231136 23.6586648,26.9882045 23.003267,26.7826591 M22.3308239,25.5813409 L22.3308239,24.0544318 C21.784517,24.1053864 21.5117898,24.3981591 21.5117898,24.7781591 C21.5117898,25.14175 21.6745739,25.3654318 22.3308239,25.5813409 M22.6700284,22.6380682 C22.8745739,22.6380682 23.0365057,22.8030227 23.0365057,23.0094318 L23.0365057,23.2002955 C23.5384943,23.26075 23.9646307,23.4248409 24.3558239,23.6744318 C24.4930398,23.7521591 24.6132102,23.8817045 24.6132102,24.0889773 C24.6132102,24.3575682 24.400142,24.5631136 24.1350852,24.5631136 C24.049858,24.5631136 23.9646307,24.5380682 23.8802557,24.4853864 C23.5819602,24.3048864 23.2930398,24.1744773 23.003267,24.10625 L23.003267,25.7644318 C24.2987216,26.09175 24.850142,26.6177045 24.850142,27.5426591 C24.850142,28.4917955 24.118892,29.1213864 23.0365057,29.2258864 L23.0365057,29.7440682 C23.0365057,29.9513409 22.8754261,30.1154318 22.6700284,30.1154318 C22.4646307,30.1154318 22.2958807,29.9522045 22.2958807,29.7440682 L22.2958807,29.2094773 C21.6566761,29.1395227 21.0694602,28.9054773 20.5495739,28.5349773 C20.4046875,28.4408409 20.3194602,28.3017955 20.3194602,28.1212955 C20.3194602,27.8527045 20.5240057,27.6454318 20.787358,27.6454318 C20.890483,27.6454318 20.9919034,27.6808409 21.068608,27.7412955 C21.4700284,28.0349318 21.8612216,28.2318409 22.3299716,28.3182045 L22.3299716,26.6177045 C21.0848011,26.2903864 20.5052557,25.8145227 20.5052557,24.8394773 C20.5052557,23.9171136 21.2296875,23.2762955 22.2950284,23.1916591 L22.2950284,23.0094318 C22.2958807,22.8038864 22.465483,22.6380682 22.6700284,22.6380682" id="Fill-1" fill="#1E67E5"></path>
                <path d="M38.4735511,37.5949545 L42.0957102,37.5949545 C43.0366193,37.5949545 43.8002557,36.8211364 43.8002557,35.8676818 L43.8002557,16.8650909 C43.8002557,15.9116364 43.0366193,15.1378182 42.0957102,15.1378182 L2.89116477,15.1378182 C1.95025568,15.1378182 1.18661932,15.9116364 1.18661932,16.8650909 L1.18661932,35.8676818 C1.18661932,36.8211364 1.95025568,37.5949545 2.89116477,37.5949545 L33.4664489,37.5949545" id="Stroke-3" stroke="#1E67E5" stroke-width="2" stroke-linecap="round" stroke-linejoin="round"></path>
                <path d="M22.4934375,19.7546455 C26.0976989,19.7546455 29.0184375,22.7151909 29.0184375,26.3657818 C29.0184375,30.0181 26.0976989,32.9786455 22.4934375,32.9786455 C18.8891761,32.9786455 15.9684375,30.0181 15.9684375,26.3657818 C15.9684375,22.7151909 18.8891761,19.7546455 22.4934375,19.7546455 Z" id="Stroke-5" stroke="#1E67E5" stroke-width="2" stroke-linecap="round" stroke-linejoin="round"></path>
                <path d="M37.7461364,1.17299091 C37.5228409,0.327490909 36.6663068,-0.172554545 35.8353409,0.0545818182 L1.15806818,9.46908182 C0.323693182,9.69621818 -0.169772727,10.5624455 0.0535227273,11.4062182" id="Stroke-7" stroke="#1E67E5" stroke-width="2" stroke-linecap="round" stroke-linejoin="round"></path>
                <path d="M41.4398864,15.1408409 L37.7461364,1.17325 C37.5228409,0.32775 36.6663068,-0.172295455 35.8353409,0.0548409091 L1.15806818,9.46934091 C0.323693182,9.69647727 -0.169772727,10.5627045 0.0535227273,11.4064773 L1.18704545,15.9017045" id="Stroke-9" stroke="#1E67E5" stroke-width="2" stroke-linecap="round" stroke-linejoin="round"></path>
                <path d="M35.1793466,11.59475 L22.133608,15.1373864" id="Stroke-11" stroke="#1E67E5" stroke-width="2" stroke-linecap="round" stroke-linejoin="round"></path>
                <polyline id="Stroke-13" stroke="#1E67E5" stroke-width="2" stroke-linecap="round" stroke-linejoin="round" points="23.8067898 8.27052727 38.5630398 4.26411818 40.1465625 10.2465273 37.6613352 10.9210273"></polyline>
                <path d="M0.871193182,14.4973455 L19.0407955,9.56511818" id="Stroke-15" stroke="#1E67E5" stroke-width="2" stroke-linecap="round" stroke-linejoin="round"></path>
            </g>
        </g>
    </g>
</svg>