<?xml version="1.0" encoding="UTF-8"?>
<svg width="40px" height="46px" viewBox="0 0 40 46" version="1.1" xmlns="http://www.w3.org/2000/svg" xmlns:xlink="http://www.w3.org/1999/xlink">
    <!-- Generator: Sketch 55.2 (78181) - https://sketchapp.com -->
    <title>Fill 1 Copy</title>
    <desc>Created with Sketch.</desc>
    <g id="Page-1" stroke="none" stroke-width="1" fill="none" fill-rule="evenodd">
        <path d="M14.774,28.226 L25.161,28.226 L25.161,26.742 L14.774,26.742 L14.774,28.226 Z M23.678,25.258 L25.161,25.258 L25.161,23.774 L23.678,23.774 L23.678,25.258 Z M19.226,25.258 L20.71,25.258 L20.71,23.774 L19.226,23.774 L19.226,25.258 Z M14.775,25.258 L16.258,25.258 L16.258,23.774 L14.775,23.774 L14.775,25.258 Z M35.548,25.258 C35.548,24.44 34.883,23.774 34.065,23.774 C33.705,23.774 33.355,23.911 33.077,24.161 C32.757,24.45 32.581,24.84 32.581,25.258 C32.581,25.677 32.757,26.066 33.077,26.355 C33.355,26.605 33.705,26.742 34.065,26.742 C34.883,26.742 35.548,26.076 35.548,25.258 L35.548,25.258 Z M31.097,25.258 C31.097,24.754 31.229,24.261 31.473,23.825 C31.351,23.791 31.225,23.774 31.097,23.774 C30.278,23.774 29.613,24.44 29.613,25.258 C29.613,26.076 30.278,26.742 31.097,26.742 C31.225,26.742 31.351,26.725 31.473,26.692 C31.229,26.255 31.097,25.763 31.097,25.258 L31.097,25.258 Z M37.032,25.258 C37.032,26.895 35.701,28.226 34.065,28.226 C33.541,28.226 33.031,28.079 32.581,27.815 C32.13,28.079 31.62,28.226 31.097,28.226 C29.46,28.226 28.129,26.895 28.129,25.258 C28.129,23.621 29.46,22.29 31.097,22.29 C31.62,22.29 32.13,22.436 32.581,22.701 C33.031,22.436 33.541,22.29 34.065,22.29 C35.701,22.29 37.032,23.621 37.032,25.258 L37.032,25.258 Z M38.516,28.968 L38.516,19.323 L13.29,19.323 L13.29,28.968 C13.29,29.377 13.623,29.71 14.032,29.71 L37.774,29.71 C38.184,29.71 38.516,29.377 38.516,28.968 L38.516,28.968 Z M23.742,31.194 L14.032,31.194 C12.805,31.194 11.807,30.195 11.807,28.968 L11.807,12.645 C11.807,11.418 12.805,10.419 14.032,10.419 L23.742,10.419 L23.742,5.935 L1.483,5.935 L1.483,38.581 L23.742,38.581 L23.742,31.194 Z M23.742,42.29 L23.742,40.065 L1.483,40.065 L1.483,42.29 C1.483,43.517 2.482,44.516 3.71,44.516 L21.516,44.516 C22.743,44.516 23.742,43.517 23.742,42.29 L23.742,42.29 Z M1.483,3.71 L1.483,4.451 L23.742,4.451 L23.742,3.71 C23.742,2.483 22.743,1.484 21.516,1.484 L3.71,1.484 C2.482,1.484 1.483,2.483 1.483,3.71 L1.483,3.71 Z M13.29,17.839 L38.516,17.839 L38.516,14.871 L13.29,14.871 L13.29,17.839 Z M37.774,11.903 L14.032,11.903 C13.623,11.903 13.29,12.236 13.29,12.645 L13.29,13.387 L38.516,13.387 L38.516,12.645 C38.516,12.236 38.184,11.903 37.774,11.903 L37.774,11.903 Z M25.226,31.194 L25.226,42.29 C25.226,44.336 23.562,46 21.516,46 L3.71,46 C1.664,46 0,44.336 0,42.29 L0,3.71 C0,1.664 1.664,0 3.71,0 L21.516,0 C23.562,0 25.226,1.664 25.226,3.71 L25.226,10.419 L37.774,10.419 C39.001,10.419 40,11.418 40,12.645 L40,28.968 C40,30.195 39.001,31.194 37.774,31.194 L25.226,31.194 Z M10.387,43.032 L14.839,43.032 L14.839,41.548 L10.387,41.548 L10.387,43.032 Z" id="Fill-1-Copy" fill="#1E67E5"></path>
    </g>
</svg>