<svg width="64" height="64" viewBox="0 0 64 64" fill="none" xmlns="http://www.w3.org/2000/svg">
<path d="M25.9923 38.6979C25.6142 36.6858 25.2361 34.7142 24.8715 32.729C23.4805 25.3828 22.0761 18.0365 20.7392 10.6767C20.3746 8.65107 19.6454 7.94885 17.4577 8.00287C14.4462 8.07039 11.4483 8.01637 8.43688 8.02988C7.16749 8.02988 6.31672 8.66457 6.06014 9.73141C5.74955 11.0548 6.65433 12.3377 8.01825 12.3917C9.54423 12.4457 11.0837 12.4187 12.6097 12.4187C13.9061 12.4187 15.2025 12.4187 16.5529 12.4187C16.769 13.5666 16.9985 14.6874 17.2011 15.8218C18.7001 23.7353 20.1855 31.6487 21.6845 39.5622C21.7925 40.1158 21.8736 40.656 21.9951 41.2097C22.2517 42.4116 23.0349 43.0733 24.2638 43.1003C24.4123 43.1003 24.5474 43.1003 24.6959 43.1003C33.3926 43.1003 42.0893 43.1003 50.786 43.1003C52.5011 43.1003 53.0952 42.6546 53.5544 40.9936C55.2829 34.7817 57.0115 28.5563 58.713 22.3443C58.8345 21.9122 58.848 21.4125 58.794 20.9669C58.6725 20.0891 58.0108 19.5084 57.1195 19.3869C56.8224 19.3464 56.5118 19.3194 56.2012 19.3194C49.5031 19.3194 42.8051 19.3194 36.107 19.3194C35.7559 19.3194 35.3777 19.3329 35.0401 19.4274C34.0543 19.684 33.3926 20.6563 33.4737 21.6826C33.5682 22.7765 34.3784 23.6137 35.4318 23.7218C35.6613 23.7488 35.9044 23.7353 36.134 23.7353C41.7652 23.7353 47.41 23.7353 53.0412 23.7353C53.2573 23.7353 53.4734 23.7353 53.7705 23.7353C53.6354 24.2079 53.5274 24.64 53.4058 25.0587C52.1905 29.434 50.9751 33.8229 49.7732 38.2118C49.6652 38.6304 49.4896 38.7249 49.071 38.7249C41.5627 38.7114 34.0543 38.7114 26.546 38.7114C26.3704 38.7249 26.1949 38.7114 25.9923 38.6979Z" fill="#273043"/>
<path d="M27.5188 47.0001C25.0481 46.9816 23.0189 49.0052 23.0001 51.4815C22.9813 53.9578 24.9917 55.9814 27.4812 55.9999C29.9425 56.0184 31.9811 53.9948 31.9999 51.5092C32.0187 49.0422 30.0083 47.0186 27.5188 47.0001ZM28.9279 51.4815C28.9373 52.3039 28.2797 52.9876 27.4906 52.9784C26.7109 52.9692 26.0815 52.3039 26.0721 51.5C26.0721 50.6776 26.7297 49.9846 27.5094 49.9939C28.2797 50.0031 28.9279 50.6776 28.9279 51.4815Z" fill="#273043"/>
<path d="M49.5188 47.0001C47.0481 46.9816 45.0189 49.0052 45.0001 51.4815C44.9813 53.9578 46.9917 55.9814 49.4812 55.9999C51.9425 56.0184 53.9811 53.9948 53.9999 51.5092C54.0187 49.0422 52.0083 47.0186 49.5188 47.0001ZM50.9279 51.4815C50.9373 52.3039 50.2797 52.9876 49.4906 52.9784C48.7109 52.9692 48.0815 52.3039 48.0721 51.5C48.0721 50.6776 48.7297 49.9846 49.5094 49.9939C50.2797 50.0031 50.9279 50.6776 50.9279 51.4815Z" fill="#273043"/>
<path d="M29.1053 51.1743C29.0918 49.9994 28.1735 49.0136 27.0662 49.0001C25.9453 48.9866 25 49.9994 25 51.2013C25 52.3762 25.9183 53.3485 27.0392 53.362C28.1735 53.3755 29.1188 52.3762 29.1053 51.1743Z" fill="#273043"/>
<path d="M51.1053 51.1743C51.0918 49.9994 50.1735 49.0136 49.0662 49.0001C47.9453 48.9866 47 49.9994 47 51.2013C47 52.3762 47.9183 53.3485 49.0392 53.362C50.1735 53.3755 51.1188 52.3762 51.1053 51.1743Z" fill="#273043"/>
</svg>
