<svg xmlns="http://www.w3.org/2000/svg" width="512" height="492.308" viewBox="0 0 512 492.308">
  <g id="cart" transform="translate(0 -9.846)">
    <g id="Group_3" data-name="Group 3">
      <g id="Group_2" data-name="Group 2">
        <path id="Path_1" data-name="Path 1" d="M508.764,74.466a14.77,14.77,0,0,0-11.533-5.542H104.152L93.16,21.294A14.77,14.77,0,0,0,78.769,9.846h-64a14.769,14.769,0,0,0,0,29.539H67.02l74.612,323.321a14.769,14.769,0,0,0,14.391,11.448H451.938a14.769,14.769,0,0,0,0-29.538H167.773l-11.36-49.231H452.924a14.769,14.769,0,0,0,14.409-11.527L511.64,86.935A14.769,14.769,0,0,0,508.764,74.466Z" fill="#fff"/>
      </g>
    </g>
    <g id="Group_5" data-name="Group 5">
      <g id="Group_4" data-name="Group 4">
        <path id="Path_2" data-name="Path 2" d="M216.615,393.846A54.154,54.154,0,1,0,270.769,448,54.215,54.215,0,0,0,216.615,393.846Z" fill="#fff"/>
      </g>
    </g>
    <g id="Group_7" data-name="Group 7">
      <g id="Group_6" data-name="Group 6">
        <path id="Path_3" data-name="Path 3" d="M393.846,393.846A54.154,54.154,0,1,0,448,448,54.215,54.215,0,0,0,393.846,393.846Z" fill="#fff"/>
      </g>
    </g>
  </g>
</svg>
