<svg width="64" height="64" viewBox="0 0 64 64" fill="none" xmlns="http://www.w3.org/2000/svg">
<path d="M32.1776 59.2861C32.591 58.8869 33.0758 58.5447 33.4037 58.0884C36.6403 53.4832 39.891 48.8921 43.0278 44.2298C45.6227 40.366 47.8897 36.3167 49.4581 31.9111C50.4276 29.1593 51.0407 26.3363 50.9979 23.3991C50.8696 15.1296 45.195 7.70127 37.2533 5.36299C26.7311 2.2833 15.8951 8.39991 13.1148 19.022C12.0598 23.0712 12.459 27.0349 13.7279 30.9558C15.1109 35.2474 17.1783 39.1968 19.6449 42.9324C22.5107 47.2668 25.5334 51.5013 28.4848 55.7787C29.0266 56.5486 29.5256 57.3613 30.0959 58.1027C30.4381 58.5447 30.9086 58.9154 31.3221 59.3004C31.6072 59.2861 31.8924 59.2861 32.1776 59.2861ZM31.7641 54.8091C31.6643 54.6951 31.6215 54.6523 31.5787 54.5953C28.6274 50.3322 25.619 46.1119 22.7389 41.806C20.3008 38.156 18.2049 34.3064 16.8219 30.1146C15.7811 26.9351 15.3105 23.6986 16.0662 20.3907C18.376 10.2677 29.0266 4.97803 38.4795 9.24112C44.867 12.1212 48.6739 19.2359 47.6045 26.1794C47.1483 29.145 46.136 31.9253 44.8385 34.6201C42.7141 39.0685 39.9766 43.1605 37.1535 47.1812C35.3856 49.7048 33.5891 52.2285 31.7641 54.8091Z" fill="#273043" stroke="#273043"/>
<path d="M31.6925 14.1602C26.4029 14.1744 22.097 18.5231 22.1113 23.827C22.1255 29.1167 26.4742 33.4225 31.7781 33.4083C37.0677 33.394 41.3736 29.0454 41.3593 23.7415C41.3451 18.4375 37.0107 14.1459 31.6925 14.1602ZM31.7353 17.3682C35.2712 17.3682 38.1513 20.2625 38.1513 23.7985C38.1513 27.3059 35.2712 30.186 31.7638 30.2003C28.2279 30.2145 25.3193 27.3202 25.3193 23.7985C25.3193 20.2625 28.2136 17.3682 31.7353 17.3682Z" fill="#273043" stroke="#273043"/>
</svg>
