<?xml version="1.0" encoding="utf-8"?>
<!-- Generator: Adobe Illustrator 21.0.0, SVG Export Plug-In . SVG Version: 6.00 Build 0)  -->
<svg version="1.1" id="Layer_1" xmlns="http://www.w3.org/2000/svg" xmlns:xlink="http://www.w3.org/1999/xlink" x="0px" y="0px"
   viewBox="0 0 100 49" style="enable-background:new 0 0 100 49;" xml:space="preserve">
<style type="text/css">
  .st0{fill:none;}
  .st1{fill:#FFFFFF;}
  .st2{fill:#C20C14;}
</style>
<g>
  <path class="st0" d="M75.9,44.7c0-0.6-0.3-1.6-1.4-1.6c-1.1,0-1.4,0.9-1.4,1.7c0,1,0.6,1.6,1.4,1.6C75.3,46.4,75.9,45.7,75.9,44.7z
    "/>
  <polygon class="st1" points="64,32.5 68.7,32.5 70.7,22.5 66,22.5  "/>
  <path class="st1" d="M58,25.3c1.5,0,2.2,0.5,2.6,1.1l3.4-1.7c-0.8-1.2-2.5-2.1-5.9-2.1c-4.7,0-7.5,2.5-7.3,5.9
    c0.1,1.9,1.4,4.8,6.7,4.6c3-0.1,3.8-0.8,5.5-2.5l-2.8-1.8c-0.2,0.6-1.4,1.1-2.7,1.1c-1.3,0-2.1-0.8-2.1-1.8
    C55.2,26.8,55.9,25.3,58,25.3z"/>
  <polygon class="st1" points="71.5,18.7 66.8,18.7 66.2,21.4 70.9,21.4  "/>
  <path class="st1" d="M46.1,29.2L46.1,29.2C46.1,29.2,46.1,29.2,46.1,29.2z"/>
  <path class="st1" d="M44.8,6.3l-5.8,0l-2,12.5l5.5,0c3.8,0,7-3.1,7-7.2C49.6,7.6,47.1,6.3,44.8,6.3z M46.5,12
    c-0.1,1.3-0.8,3.9-3.5,3.9h-2.4l1-6.5l2.1,0C45.1,9.4,46.7,10.2,46.5,12z"/>
  <polygon class="st1" points="24.9,18.9 35.2,18.9 35.8,16 28.6,16 29.1,13.6 35.5,13.6 35.9,11.1 29.5,11.1 29.8,9.2 36.6,9.2 
    37.1,6.2 26.8,6.2   "/>
  <path class="st1" d="M49.5,26.7c-0.2-3.1-3.6-4.4-6.4-4.4c-3.1,0-7.4,1.5-7.2,6.1c0.1,2.4,2,4.3,6.5,4.4c4,0.1,5.1-1.5,5.9-2.2
    l-2.2-1.5c-0.1,0.1-0.8,1-3.4,1c-1.5,0-2.2-0.7-2.2-1.8h8.9C49.5,27.8,49.5,27.2,49.5,26.7z M45,26.4h-4.2c0.3-1.1,1.1-1.7,2.4-1.7
    c1.2,0,1.8,0.6,1.9,1.4C45,26.2,45,26.4,45,26.4z"/>
  <path class="st1" d="M27.3,22.7l-2,10H30l0.9-4.2c0.2-1.2,1.4-2.5,3.4-2.5c0.8,0,1.2,0,1.2,0l0.8-3.5c0-0.1-0.4,0-1.2,0
    c-1.2,0-2.7,0.8-3.5,1.8h0l0.3-1.6H27.3z"/>
  <path class="st1" d="M13,35.6l1-4.4c1.2,1.3,2.7,1.5,4.2,1.5c4.6,0,6.4-3.4,6.3-6.4c-0.1-1.8-1.4-4.1-5.2-4.1
    c-1.6,0-2.7,0.5-3.6,1.4h-0.1l0.3-1.1h-5l-3,13.2H13z M17.3,25c1.5,0,1.9,0.8,2,1.8c0.1,1.3-0.5,3.2-2.6,3.2c-1.7,0-2-1.3-2-1.6
    C14.7,27.4,15,25,17.3,25z"/>
  <path class="st1" d="M78,22.3c-4.1,0.6-7.1,3.3-6.7,6.2c0.4,2.9,4,4.7,8.1,4.2c4.1-0.6,7.1-3.3,6.7-6.2C85.6,23.6,82,21.7,78,22.3z
     M79.4,29.7c-1.5,0.4-3-0.3-3.3-1.4c-0.3-1.2,0.7-2.4,2.2-2.8c1.5-0.4,3,0.3,3.3,1.4C81.8,28,80.9,29.3,79.4,29.7z"/>
  <path class="st1" d="M23.8,9.8c0-1.9-1.5-3.4-3.8-3.4l-6.3,0l-1.9,12.5l3.3,0l0.6-3.6l2.1,0c0,0,1.7,3.3,1.9,3.6l3.7,0
    c-0.4-0.7-2-4-2-4S23.8,13.6,23.8,9.8z M18.6,11.9h-2.3L17,9.4l2.1,0c1,0,1.3,0.6,1.4,1.1C20.4,11.2,19.9,11.9,18.6,11.9z"/>
  <path class="st2" d="M19,9.4l-2.1,0l-0.6,2.6h2.3c1.3,0,1.8-0.7,1.8-1.5C20.4,9.9,20,9.4,19,9.4z"/>
  <path class="st2" d="M43.9,9.4l-2.1,0l-1,6.5h2.4c2.7,0,3.4-2.7,3.5-3.9C46.7,10.2,45.1,9.4,43.9,9.4z"/>
  <path class="st2" d="M16.7,29.9c2.1,0,2.6-1.9,2.6-3.2c-0.1-1-0.5-1.8-2-1.8c-2.3,0-2.6,2.4-2.5,3.3C14.8,28.6,15,29.9,16.7,29.9z"
    />
  <path class="st2" d="M43.1,24.8c-1.3,0-2.1,0.6-2.4,1.7H45c0-0.1,0-0.2,0-0.3C45,25.4,44.3,24.8,43.1,24.8z"/>
  <path class="st2" d="M95.4,1.7H9.9c-2.4,0-4.6,2.2-5.1,4.9l-4.3,28c-0.4,2.7,1.2,4.9,3.5,4.9h85.5c2.4,0,4.6-2.2,5.1-4.9l4.3-28
    C99.3,3.9,97.8,1.7,95.4,1.7z M23.2,18.9l-3.7,0c-0.2-0.3-1.9-3.6-1.9-3.6l-2.1,0L15,18.9l-3.3,0l1.9-12.5l6.3,0
    c2.3,0,3.9,1.5,3.8,3.4c0,3.8-2.6,5.1-2.6,5.1S22.9,18.1,23.2,18.9z M15.9,22.5l-0.3,1.1h0.1c0.8-0.9,2-1.4,3.6-1.4
    c3.8,0,5.1,2.3,5.2,4.1c0.2,3-1.7,6.4-6.3,6.4c-1.5,0-3-0.1-4.2-1.5l-1,4.4H7.8l3-13.2H15.9z M42.7,30.2c2.5,0,3.3-0.8,3.4-1l0,0
    c0,0,0,0,0,0l2.2,1.5c-0.8,0.6-1.9,2.3-5.9,2.2c-4.4-0.1-6.3-2-6.5-4.4c-0.2-4.6,4.1-6.1,7.2-6.1c2.8,0,6.2,1.2,6.4,4.4
    c0,0.5,0,1.1-0.1,1.7h-8.9C40.5,29.5,41.2,30.2,42.7,30.2z M31.6,24.2c0.8-1.1,2.3-1.8,3.5-1.8c0.8,0,1.2-0.1,1.2,0l-0.8,3.5
    c0,0-0.5,0-1.2,0c-2,0-3.2,1.4-3.4,2.5L30,32.7h-4.7l2-10h4.5L31.6,24.2L31.6,24.2z M42.6,18.8l-5.5,0l2-12.5l5.8,0
    c2.3,0,4.8,1.3,4.8,5.3C49.6,15.7,46.4,18.8,42.6,18.8z M36.6,9.2h-6.8l-0.3,1.9l6.4,0l-0.4,2.5h-6.4L28.6,16h7.2l-0.6,2.9l-10.4,0
    l1.9-12.6h10.3L36.6,9.2z M57.4,29.9c1.3,0,2.5-0.6,2.7-1.1l2.8,1.8c-1.7,1.7-2.5,2.4-5.5,2.5c-5.2,0.2-6.6-2.7-6.7-4.6
    c-0.2-3.4,2.6-5.9,7.3-5.9c3.4,0,5.1,0.9,5.9,2.1l-3.4,1.7c-0.4-0.6-1-1.1-2.6-1.1c-2,0-2.8,1.5-2.7,2.8
    C55.3,29.1,56.1,29.9,57.4,29.9z M70.7,22.5l-2,10H64l2-10H70.7z M66.2,21.4l0.6-2.7h4.7l-0.6,2.7H66.2z M79.3,32.6
    c-4.1,0.6-7.7-1.3-8.1-4.2c-0.4-2.9,2.6-5.6,6.7-6.2c4.1-0.6,7.7,1.3,8.1,4.2C86.4,29.3,83.4,32,79.3,32.6z"/>
  <ellipse transform="matrix(0.9698 -0.2438 0.2438 0.9698 -4.3387 20.0455)" class="st2" cx="78.8" cy="27.6" rx="2.8" ry="2.2"/>
  <rect x="61.6" y="45.3" class="st2" width="2.8" height="2.5"/>
  <path class="st2" d="M77.8,44.7c0-1.8-1.4-3.1-3.3-3.1c-2,0-3.4,1.3-3.4,3.2c0,1.8,1.4,3.1,3.3,3.1C76,47.9,77.8,46.9,77.8,44.7z
     M74.4,46.4c-0.8,0-1.4-0.7-1.4-1.6c0-0.8,0.4-1.7,1.4-1.7c1.1,0,1.4,1,1.4,1.6C75.9,45.7,75.3,46.4,74.4,46.4z"/>
  <path class="st2" d="M86,44.4l0,3.4h1.9l0-3.5c0-2-1.3-2.7-2.4-2.7c-0.6,0-1.1,0.1-1.5,0.4c-0.2,0.1-0.3,0.2-0.4,0.3
    c-0.4-0.5-1-0.8-1.7-0.8c-0.6,0-1.2,0.2-1.6,0.5l0-0.4l-1.7,0l0,0.6c0,0.4,0,0.8,0,1.3l0,4.3h1.9l0-3.6c0-0.1,0-0.2,0-0.3l0,0
    c0.1-0.4,0.5-0.7,1-0.7c0.7,0,0.9,0.6,0.9,1.1l0,3.6l1.9,0v-3.7c0-0.1,0-0.2,0.1-0.3c0.1-0.3,0.4-0.6,0.9-0.6
    C85.3,43.2,86,43.2,86,44.4z"/>
  <path class="st2" d="M70.7,46.5l-1.2-0.9l-0.2,0.3c-0.2,0.3-0.7,0.6-1.1,0.6c0,0,0,0,0,0c-1.1-0.1-1.6-1-1.6-1.8
    c0-0.7,0.7-1.6,1.6-1.6c0.5,0,1,0.3,1.2,0.5l0.2,0.2l1.1-1.1l-0.2-0.2c-0.6-0.6-1.2-1.1-2.3-1.1c-0.9,0-1.7,0.3-2.3,0.9
    C65.3,43,65,43.8,65,44.8c0,1,0.3,1.8,0.8,2.3c0.6,0.6,1.3,0.9,2.3,0.9c1,0,1.7-0.2,2.4-1.2L70.7,46.5z"/>
</g>
</svg>