<svg width="71" height="71" viewBox="0 0 71 71" fill="none" xmlns="http://www.w3.org/2000/svg">
<circle cx="35.5" cy="35.5" r="35.5" fill="white"/>
<circle cx="35.5" cy="35.5" r="32.5" fill="#C2292F"/>
<path d="M44.7481 41.3209C46.6219 38.6303 47.3902 35.3632 46.9035 32.156C46.4168 28.9487 44.7098 26.0312 42.1152 23.9717C39.5205 21.9122 36.2241 20.8583 32.868 21.0153C29.5119 21.1723 26.3367 22.529 23.9608 24.8211C21.5849 27.1131 20.1786 30.1763 20.0159 33.4139C19.8531 36.6515 20.9456 39.8316 23.0805 42.3347C25.2153 44.8377 28.2396 46.4844 31.5642 46.954C34.8887 47.4235 38.2754 46.6823 41.0645 44.8746L46.1775 49.8072C46.666 50.2784 47.3285 50.5432 48.0193 50.5432C48.7102 50.5432 49.3727 50.2784 49.8612 49.8072C50.3497 49.3359 50.6241 48.6968 50.6241 48.0303C50.6241 47.3639 50.3497 46.7247 49.8612 46.2535L44.7481 41.3209ZM33.5352 44.0763C31.4811 44.0763 29.4732 43.4887 27.7653 42.3878C26.0574 41.2869 24.7263 39.7221 23.9403 37.8914C23.1542 36.0607 22.9486 34.0462 23.3493 32.1028C23.75 30.1593 24.7391 28.3741 26.1916 26.9729C27.644 25.5717 29.4945 24.6175 31.5091 24.231C33.5237 23.8444 35.6119 24.0428 37.5095 24.8011C39.4072 25.5594 41.0292 26.8436 42.1704 28.4912C43.3115 30.1388 43.9206 32.0758 43.9206 34.0574C43.9175 36.7136 42.8223 39.2602 40.8754 41.1385C38.9284 43.0168 36.2886 44.0733 33.5352 44.0763Z" fill="white"/>
<path d="M28.8242 31.8826C29.3242 30.8826 31.2242 28.9826 34.8242 29.3826" stroke="white" stroke-width="2" stroke-linecap="round"/>
<circle cx="38" cy="30" r="1" fill="white"/>
</svg>
