<svg width="64" height="64" viewBox="0 0 64 64" fill="none" xmlns="http://www.w3.org/2000/svg">
<path d="M59 59C57.6157 59 56.2314 59 54.8076 59C54.6362 51.8404 51.8677 45.9202 46.3701 41.3713C41.9536 37.7189 36.812 36.018 31.0903 36.2554C25.0127 36.5059 19.8184 38.8661 15.5996 43.2568C11.394 47.6343 9.32422 52.9084 9.20557 58.9868C7.80811 58.9868 6.4502 58.9868 5 58.9868C5.05273 53.2512 6.66113 48.0298 9.99658 43.3622C13.3188 38.721 17.6958 35.4379 23.1143 33.4996C14.7163 27.6454 14.3999 16.0159 21.0181 9.52876C27.478 3.19982 37.3921 3.70086 43.2456 9.80566C49.7188 16.5433 48.9805 27.6849 40.8726 33.4601C41.0967 33.5524 41.2813 33.6183 41.4526 33.6974C49.6792 36.9806 55.1768 42.8216 57.8662 51.2734C58.4463 53.1062 58.7759 54.9917 58.9077 56.9035C58.9209 57.0749 58.9736 57.2464 59 57.4046C59 57.9452 59 58.4726 59 59ZM32 31.9965C38.249 31.9965 43.3643 26.907 43.3906 20.644C43.417 14.381 38.2754 9.2255 32.0132 9.2255C25.7642 9.2255 20.6489 14.315 20.6226 20.578C20.583 26.8279 25.7246 31.9965 32 31.9965Z" fill="#273043" stroke="#273043"/>
</svg>
